#!OML:ASF F:\VICON\USERDATA\INSTALL\rory3\rory3.ASF
:FULLY-SPECIFIED
:DEGREES
1565
root 0.580704 18.4999 0.430533 -4.06367 -12.4234 2.52209
lowerback 2.18666 0.862342 -0.298372
upperback 1.80595 1.14841 -2.09095
thorax 0.66187 0.58252 -1.9933
lowerneck 0.916115 -2.64254 -9.94954
upperneck 22.2486 -3.702 2.91912
head 6.89802 -2.399 2.40798
rclavicle -4.40991e-014 8.34896e-015
rhumerus 24.6491 -4.59841 -58.3982
rradius 23.5781
rwrist 23.3189
rhand -31.5885 -1.14449
rfingers 7.12502
rthumb -4.8514 -31.069
lclavicle -4.40991e-014 8.34896e-015
lhumerus 25.9634 -44.6672 68.3123
lradius 139.848
lwrist 93.5299
lhand -37.6642 57.8935
lfingers 7.12502
lthumb -10.7154 87.6003
rfemur -1.47133 3.74471 23.9507
rtibia 31.2223
rfoot -32.3204 -32.612
rtoes 5.10304
lfemur -21.0472 -7.60881 -5.92694
ltibia 31.6312
lfoot 2.41628 5.36669
ltoes -12.2382
1566
root 0.596977 18.4954 0.461143 -3.89455 -11.5928 2.44951
lowerback 2.022 0.781668 -0.412181
upperback 1.76665 1.04155 -2.15003
thorax 0.709354 0.528328 -1.9863
lowerneck 0.871742 -2.56067 -9.8826
upperneck 22.5285 -3.5809 2.89268
head 6.98694 -2.3422 2.39648
rclavicle 2.15619e-014 -6.36111e-015
rhumerus 25.4133 -3.94504 -57.104
rradius 24.1833
rwrist 22.5756
rhand -31.9406 -1.69133
rfingers 7.12502
rthumb -5.19135 -31.6077
lclavicle 2.15619e-014 -6.36111e-015
lhumerus 25.7286 -44.6675 68.5027
lradius 139.885
lwrist 93.3824
lhand -37.9088 58.1133
lfingers 7.12502
lthumb -10.9513 87.8077
rfemur -1.41665 3.40823 23.9645
rtibia 31.0921
rfoot -32.5263 -32.9176
rtoes 4.96844
lfemur -21.1096 -7.62331 -5.98151
ltibia 31.7081
lfoot 2.15583 6.62804
ltoes -13.3731
1567
root 0.613876 18.4933 0.492098 -3.81208 -10.7671 2.41462
lowerback 1.89638 0.734986 -0.531838
upperback 1.74071 0.980078 -2.25427
thorax 0.751063 0.497055 -2.02383
lowerneck 0.931652 -2.47442 -9.64008
upperneck 22.7928 -3.4669 2.82705
head 7.04831 -2.27785 2.34383
rclavicle 2.03879e-014 -7.55382e-015
rhumerus 26.1469 -3.94999 -56.2359
rradius 24.5932
rwrist 22.6858
rhand -32.1878 -2.07276
rfingers 7.12502
rthumb -5.43002 -31.9832
lclavicle 2.03879e-014 -7.55382e-015
lhumerus 25.5448 -44.8496 68.6059
lradius 139.917
lwrist 92.8892
lhand -38.0033 58.3349
lfingers 7.12502
lthumb -11.0425 88.0245
rfemur -1.30583 3.10775 23.948
rtibia 30.9902
rfoot -32.6736 -33.3753
rtoes 4.62053
lfemur -21.0591 -7.63381 -6.09071
ltibia 31.7255
lfoot 2.0309 8.05839
ltoes -12.5246
1568
root 0.629603 18.4883 0.51911 -3.69072 -10.0515 2.21634
lowerback 1.85149 0.725236 -0.548029
upperback 1.70453 0.967375 -2.3019
thorax 0.739312 0.490763 -2.06319
lowerneck 0.993118 -2.38162 -9.45458
upperneck 23.0144 -3.35634 2.84644
head 7.09813 -2.21198 2.32827
rclavicle -3.54085e-016 1.94809e-014
rhumerus 26.8573 -4.32961 -55.5545
rradius 25.0143
rwrist 23.2529
rhand -32.0939 -1.82829
rfingers 7.12502
rthumb -5.33942 -31.741
lclavicle -3.54085e-016 1.94809e-014
lhumerus 25.4198 -45.0808 68.6432
lradius 139.931
lwrist 92.2695
lhand -37.91 58.3073
lfingers 7.12502
lthumb -10.9525 88.0017
rfemur -1.22631 2.98662 24.1561
rtibia 30.8904
rfoot -33.0274 -33.7882
rtoes 4.99866
lfemur -20.9935 -7.68411 -5.98747
ltibia 31.6859
lfoot 2.01651 9.47997
ltoes -11.1912
1569
root 0.647008 18.481 0.55081 -3.58008 -9.40712 1.98533
lowerback 1.90144 0.74317 -0.483142
upperback 1.57841 0.988738 -2.36536
thorax 0.585018 0.501663 -2.16677
lowerneck 1.2643 -2.28697 -9.2888
upperneck 23.1417 -3.25951 2.85192
head 7.08222 -2.15507 2.31253
rclavicle -5.98218e-015 -1.39149e-014
rhumerus 27.3204 -4.61297 -54.9099
rradius 25.4939
rwrist 23.7825
rhand -32.2665 -1.55097
rfingers 7.12502
rthumb -5.50608 -31.4594
lclavicle -5.98218e-015 -1.39149e-014
lhumerus 24.9947 -45.4793 68.8573
lradius 139.936
lwrist 91.6859
lhand -37.7444 58.288
lfingers 7.12502
lthumb -10.7928 87.9907
rfemur -1.0878 2.82347 24.3867
rtibia 30.7619
rfoot -33.2744 -34.1305
rtoes 5.04249
lfemur -20.9231 -7.69871 -5.83597
ltibia 31.6824
lfoot 2.11206 10.6228
ltoes -8.59123
1570
root 0.665514 18.4715 0.583494 -3.44867 -8.8171 1.67713
lowerback 1.61992 0.875907 -0.332083
upperback 1.71819 1.17677 -2.4678
thorax 0.897917 0.599687 -2.35332
lowerneck 1.31501 -2.34909 -8.90753
upperneck 23.0832 -3.36872 2.88309
head 7.05128 -2.16988 2.25303
rclavicle -2.40654e-014 -5.1684e-015
rhumerus 27.906 -5.59031 -54.5211
rradius 25.9149
rwrist 24.4902
rhand -32.5835 -1.63542
rfingers 7.12502
rthumb -5.81207 -31.5357
lclavicle -2.40654e-014 -5.1684e-015
lhumerus 25.3456 -45.9602 68.5508
lradius 139.976
lwrist 91.1236
lhand -37.8905 58.3101
lfingers 7.12502
lthumb -10.9337 88.0054
rfemur -0.961732 2.70581 24.7123
rtibia 30.6231
rfoot -33.6006 -34.4535
rtoes 4.86014
lfemur -20.9072 -7.62923 -5.58606
ltibia 31.7319
lfoot 2.59063 11.5551
ltoes -5.86393
1571
root 0.684697 18.4609 0.612095 -3.35559 -8.23261 1.21314
lowerback 1.67578 0.7532 -0.215591
upperback 1.78066 1.01379 -2.29227
thorax 0.92299 0.518749 -2.23737
lowerneck 1.07012 -2.16352 -9.13482
upperneck 23.1924 -3.06661 2.85685
head 7.11585 -2.04435 2.29892
rclavicle -3.11098e-014 4.77083e-015
rhumerus 28.8749 -5.6964 -54.0651
rradius 26.4129
rwrist 24.8455
rhand -32.9565 -1.94186
rfingers 7.12502
rthumb -6.17218 -31.8319
lclavicle -3.11098e-014 4.77083e-015
lhumerus 25.1125 -45.7268 68.6534
lradius 140.018
lwrist 90.5176
lhand -38.0754 58.2715
lfingers 7.12502
lthumb -11.112 87.9573
rfemur -0.804164 2.60878 25.2275
rtibia 30.5021
rfoot -34.0421 -34.753
rtoes 5.25826
lfemur -20.8188 -7.44102 -5.19363
ltibia 31.8062
lfoot 3.41339 11.9829
ltoes -5.42731
1572
root 0.705276 18.4529 0.645373 -3.31994 -7.7152 0.865139
lowerback 1.67868 0.773437 -0.0937459
upperback 1.7111 1.04071 -2.2845
thorax 0.853097 0.532985 -2.29861
lowerneck 1.44168 -2.03841 -8.94278
upperneck 23.1898 -2.91416 2.7482
head 7.03563 -1.96502 2.2444
rclavicle 8.90804e-015 -1.51076e-014
rhumerus 29.0987 -5.89245 -53.5257
rradius 27.1227
rwrist 25.0984
rhand -32.9016 -1.39979
rfingers 7.12502
rthumb -6.11923 -31.2914
lclavicle 8.90804e-015 -1.51076e-014
lhumerus 24.5422 -45.9176 68.9367
lradius 140.041
lwrist 90.0226
lhand -37.9323 57.9998
lfingers 7.12502
lthumb -10.974 87.693
rfemur -0.605693 2.58078 25.6141
rtibia 30.4207
rfoot -34.3991 -35.0015
rtoes 5.50958
lfemur -20.6082 -7.30858 -4.92721
ltibia 31.9172
lfoot 3.72965 12.0457
ltoes -3.98948
1573
root 0.731285 18.4462 0.6812 -3.23196 -7.17236 0.788029
lowerback 1.58547 0.827606 -0.142836
upperback 1.81074 1.11693 -2.41545
thorax 1.01241 0.572764 -2.40409
lowerneck 1.19446 -2.01272 -8.60661
upperneck 23.2659 -2.83852 2.60445
head 7.09004 -1.90882 2.14337
rclavicle -1.44367e-014 1.19271e-014
rhumerus 29.4366 -6.41779 -53.0741
rradius 27.9412
rwrist 25.3662
rhand -32.6052 -0.387929
rfingers 7.12502
rthumb -5.83304 -30.2876
lclavicle -1.44367e-014 1.19271e-014
lhumerus 24.589 -46.0242 68.7641
lradius 139.996
lwrist 89.4844
lhand -37.4885 57.7902
lfingers 7.12502
lthumb -10.5459 87.5057
rfemur -0.516844 2.49238 25.6454
rtibia 30.387
rfoot -34.689 -35.1932
rtoes 5.84252
lfemur -20.4619 -7.43033 -4.94052
ltibia 32.0717
lfoot 3.21752 12.1711
ltoes -1.50152
1574
root 0.760803 18.435 0.713931 -3.11318 -6.65299 0.677801
lowerback 1.86783 0.855458 -0.0803103
upperback 1.62792 1.1472 -2.58972
thorax 0.673042 0.587027 -2.62513
lowerneck 0.95321 -1.9551 -8.23146
upperneck 23.6046 -2.71516 2.40556
head 7.22699 -1.837 2.02173
rclavicle -9.31803e-016 3.18055e-015
rhumerus 29.4005 -6.62497 -52.7279
rradius 28.8692
rwrist 25.5596
rhand -32.6662 -0.0570439
rfingers 7.12502
rthumb -5.89191 -29.9551
lclavicle -9.31803e-016 3.18055e-015
lhumerus 24.0397 -46.3149 68.8884
lradius 140.023
lwrist 88.7946
lhand -37.3377 57.3697
lfingers 7.12502
lthumb -10.4005 87.0925
rfemur -0.495745 2.32411 25.6728
rtibia 30.4107
rfoot -35.0883 -35.2663
rtoes 6.0629
lfemur -20.3169 -7.47999 -4.94373
ltibia 32.2185
lfoot 2.5218 12.0499
ltoes -2.95304
1575
root 0.792745 18.4223 0.747621 -2.95135 -6.2202 0.37653
lowerback 1.82461 0.859957 0.0495992
upperback 1.60156 1.15508 -2.58455
thorax 0.673091 0.592113 -2.69248
lowerneck 0.407173 -1.8825 -7.94337
upperneck 24.0223 -2.50861 2.05548
head 7.44198 -1.74419 1.86745
rclavicle 1.74434e-014 -1.27222e-014
rhumerus 29.6371 -6.74364 -52.3222
rradius 29.7987
rwrist 25.7388
rhand -33.1302 -0.844681
rfingers 7.12502
rthumb -6.33992 -30.7298
lclavicle 1.74434e-014 -1.27222e-014
lhumerus 23.5462 -46.4179 69.0506
lradius 140.068
lwrist 87.6997
lhand -37.1024 56.7408
lfingers 7.12502
lthumb -10.1735 86.4748
rfemur -0.530103 2.1369 25.8878
rtibia 30.482
rfoot -35.3085 -35.2701
rtoes 5.93577
lfemur -20.1585 -7.28781 -4.77802
ltibia 32.326
lfoot 2.07515 11.6335
ltoes -7.0221
1576
root 0.827372 18.4127 0.780681 -2.80357 -5.78751 0.115904
lowerback 1.67495 1.21738 0.39534
upperback 1.34126 1.63403 -2.9412
thorax 0.533592 0.834171 -3.25978
lowerneck 1.46683 -2.04628 -6.85655
upperneck 23.8201 -2.84768 1.90538
head 7.18247 -1.82527 1.62407
rclavicle -1.25483e-015 2.06736e-014
rhumerus 28.4732 -7.61966 -51.9921
rradius 30.9261
rwrist 26.0428
rhand -33.4774 -1.29413
rfingers 7.12502
rthumb -6.67507 -31.1689
lclavicle -1.25483e-015 2.06736e-014
lhumerus 22.9569 -47.5005 69.2641
lradius 139.976
lwrist 86.4317
lhand -36.1364 56.4172
lfingers 7.12502
lthumb -9.24144 86.1947
rfemur -0.578612 1.95026 26.0425
rtibia 30.5686
rfoot -35.3523 -35.2947
rtoes 5.81556
lfemur -20.0191 -7.18499 -4.66536
ltibia 32.4257
lfoot 1.69344 11.1384
ltoes -9.58656
1577
root 0.863578 18.4032 0.815688 -2.72799 -5.36949 -0.0287886
lowerback 1.60804 1.47956 0.586449
upperback 1.25006 1.98619 -3.2515
thorax 0.51683 1.01291 -3.69108
lowerneck 2.29439 -2.12841 -6.30396
upperneck 23.3716 -3.08591 2.15878
head 6.89246 -1.8704 1.60918
rclavicle -6.90777e-015 1.11319e-014
rhumerus 27.7778 -8.49072 -51.8407
rradius 32.0152
rwrist 26.4063
rhand -33.4839 -0.699265
rfingers 7.12502
rthumb -6.68134 -30.5739
lclavicle -6.90777e-015 1.11319e-014
lhumerus 22.489 -48.2384 69.4407
lradius 139.798
lwrist 85.3114
lhand -35.2501 55.8889
lfingers 7.12502
lthumb -8.38614 85.7024
rfemur -0.543049 1.89088 26.092
rtibia 30.6458
rfoot -35.291 -35.5325
rtoes 5.42781
lfemur -19.852 -7.21829 -4.67568
ltibia 32.4837
lfoot 1.10351 10.5483
ltoes -12.1818
1578
root 0.899205 18.3967 0.851743 -2.71349 -5.09756 -0.141611
lowerback 1.59927 1.49854 0.433779
upperback 1.47134 2.01542 -3.22568
thorax 0.744559 1.03052 -3.57458
lowerneck 1.91092 -1.98035 -6.56009
upperneck 23.1469 -2.88657 2.40929
head 6.88216 -1.76955 1.74064
rclavicle 3.08116e-014 -1.59028e-015
rhumerus 28.2475 -8.76462 -51.6864
rradius 32.9862
rwrist 26.4802
rhand -34.4097 -0.547191
rfingers 7.12502
rthumb -7.57506 -30.3915
lclavicle 3.08116e-014 -1.59028e-015
lhumerus 22.2935 -47.857 69.5025
lradius 139.638
lwrist 84.2564
lhand -34.8395 55.2532
lfingers 7.12502
lthumb -7.9899 85.0822
rfemur -0.42159 1.94844 26.0948
rtibia 30.7335
rfoot -35.3603 -35.5634
rtoes 5.24081
lfemur -19.5111 -7.18486 -4.72044
ltibia 32.4261
lfoot 0.292608 9.91642
ltoes -17.3063
